<?xml version="1.0" encoding="UTF-8" standalone="no"?>
<!-- Created with Inkscape (http://www.inkscape.org/) -->

<svg
   width="53.655506mm"
   height="33.311874mm"
   viewBox="0 0 53.655506 33.311874"
   version="1.1"
   id="svg1"
   xml:space="preserve"
   inkscape:version="1.3.2 (091e20e, 2023-11-25, custom)"
   sodipodi:docname="drawing.svg"
   xmlns:inkscape="http://www.inkscape.org/namespaces/inkscape"
   xmlns:sodipodi="http://sodipodi.sourceforge.net/DTD/sodipodi-0.dtd"
   xmlns="http://www.w3.org/2000/svg"
   xmlns:svg="http://www.w3.org/2000/svg"><sodipodi:namedview
     id="namedview1"
     pagecolor="#ffffff"
     bordercolor="#000000"
     borderopacity="0.25"
     inkscape:showpageshadow="2"
     inkscape:pageopacity="0.0"
     inkscape:pagecheckerboard="0"
     inkscape:deskcolor="#d1d1d1"
     inkscape:document-units="mm"
     inkscape:zoom="1.4778115"
     inkscape:cx="178.98088"
     inkscape:cy="74.096053"
     inkscape:window-width="2560"
     inkscape:window-height="1369"
     inkscape:window-x="-8"
     inkscape:window-y="-8"
     inkscape:window-maximized="1"
     inkscape:current-layer="layer1" /><defs
     id="defs1" /><g
     inkscape:label="Layer 1"
     inkscape:groupmode="layer"
     id="layer1"
     transform="translate(-67.566452,-48.071372)"><path
       style="fill:#000000"
       d="m 93.017326,81.206384 c -0.5517,-0.36839 -0.86214,-1.29288 -3.13269,-9.329377 -1.25291,-4.43461 -2.34455,-8.24152 -2.42586,-8.4598 -0.0991,-0.26612 -0.36615,0.029 -0.81044,0.89583 -0.90658,1.76872 -2.82639,3.61688 -4.72274,4.5465 -1.44386,0.70779 -1.82389,0.77538 -4.35985,0.77538 -2.53597,0 -2.916,-0.0676 -4.35986,-0.77538 -2.01603,-0.98829 -3.79987,-2.77275 -4.78495,-4.78664 -1.10913,-2.2675 -1.14376,-6.355772 -0.0732,-8.639533 2.46909,-5.267045 8.76502,-7.432154 13.83936,-4.759227 0.73246,0.385822 1.41801,0.740854 1.52344,0.788961 0.10544,0.04811 0.16497,-0.540731 0.13229,-1.308526 -0.0557,-1.30765 -0.0131,-1.412687 0.67235,-1.659842 0.55951,-0.201739 0.81556,-0.173627 1.0877,0.119416 0.19577,0.210797 2.10242,6.574518 4.23701,14.141601 2.13458,7.56708 3.97399,13.985487 4.08757,14.263137 0.17051,0.4168 2.39134,-2.06223 12.740144,-14.221357 6.89351,-8.099384 12.63531,-14.726155 12.75956,-14.726155 0.4882,0 1.53004,0.878329 1.52682,1.2872 -0.002,0.237926 -2.62124,3.50345 -5.82083,7.256721 -3.19959,3.753274 -5.81744,6.944764 -5.81744,7.092204 0,0.14744 2.67891,3.70774 5.95313,7.91179 3.27422,4.204047 5.95312,7.822137 5.95312,8.040187 0,0.43019 -0.97394,1.22023 -1.50427,1.22023 -0.18052,0 -2.96886,-3.39328 -6.19632,-7.540627 -3.22746,-4.14734 -5.94912,-7.54062 -6.04814,-7.54062 -0.099,0 -2.3741,2.58959 -5.05575,5.75464 -8.640024,10.197517 -8.618394,10.175297 -9.400184,9.653287 z M 80.898706,66.579777 c 5.71196,-2.76511 5.71494,-10.783576 0.005,-13.821523 -1.76285,-0.937938 -5.12671,-0.840803 -7.01033,0.202428 -6.08817,3.371911 -4.84388,12.418155 1.95243,14.194575 1.22077,0.31909 3.81525,0.0236 5.05276,-0.57548 z"
       id="path3"
       inkscape:export-filename="path3.png"
       inkscape:export-xdpi="96"
       inkscape:export-ydpi="96" /></g></svg>
